#!OML:ASF F:\VICON\USERDATA\INSTALL\Justin_Nancy\Justin_Nancy.ASF
:FULLY-SPECIFIED
:DEGREES
264
root 0.972028 15.5933 -15.7121 41.362 0.377142 -0.595829
lowerback 58.1466 -1.2564 3.82569
upperback 1.56332 1.41181 1.82702
thorax -20.3418 0.257702 -0.302892
lowerneck -24.1132 -3.64207 -8.86443
upperneck -22.0892 -1.86805 9.57608
head -2.88112 -0.435687 4.49107
rclavicle 1.23246e-014 3.06128e-014
rhumerus -41.4186 -10.4903 -78.1079
rradius 78.2589
rwrist -21.8789
rhand -25.1241 24.4474
rfingers 7.12502
rthumb 1.39172 -5.52782
lclavicle 1.23246e-014 3.06128e-014
lhumerus -39.3596 6.25587 85.0261
lradius 62.366
lwrist 21.2281
lhand -26.2833 15.8323
lfingers 7.12502
lthumb 0.27211 45.8119
rfemur -76.143 -6.07643 23.4762
rtibia 66.897
rfoot -25.3928 -6.62275
rtoes -5.44384
lfemur -76.9898 0.375619 -17.9492
ltibia 66.5314
lfoot -27.8774 5.98121
ltoes -4.1472
265
root 0.967695 15.5723 -15.5854 40.8427 0.502254 -0.534414
lowerback 58.7122 -1.39447 3.94765
upperback 1.40999 1.37409 1.84929
thorax -20.5805 0.229738 -0.299721
lowerneck -23.8881 -3.5775 -8.99049
upperneck -22.1944 -1.77902 9.43136
head -2.95365 -0.381298 4.47253
rclavicle -5.1684e-015 5.86415e-015
rhumerus -40.144 -10.576 -78.2966
rradius 76.7059
rwrist -20.5621
rhand -24.9902 26.2755
rfingers 7.12502
rthumb 1.52108 -3.69883
lclavicle -5.1684e-015 5.86415e-015
lhumerus -38.2602 6.92094 85.2613
lradius 61.4219
lwrist 20.7619
lhand -26.586 15.5898
lfingers 7.12502
lthumb -0.0201972 45.5695
rfemur -75.2217 -6.30421 23.491
rtibia 67.4349
rfoot -26.0423 -7.01302
rtoes -7.9005
lfemur -76.1597 0.436367 -18.1085
ltibia 66.978
lfoot -28.3475 6.14332
ltoes -4.63328
266
root 0.963661 15.5465 -15.4557 40.3591 0.583722 -0.628025
lowerback 58.8464 -1.46149 4.17172
upperback 1.46014 1.43188 1.80221
thorax -20.5115 0.233301 -0.48323
lowerneck -24.2023 -3.61983 -8.92118
upperneck -21.9338 -1.84837 9.31579
head -2.83287 -0.411449 4.4127
rclavicle 5.56597e-015 1.08338e-014
rhumerus -38.3689 -10.8463 -78.6138
rradius 74.8399
rwrist -19.3142
rhand -25.0514 27.8255
rfingers 7.12502
rthumb 1.46196 -2.14928
lclavicle 5.56597e-015 1.08338e-014
lhumerus -36.7883 7.40504 85.4695
lradius 60.8362
lwrist 20.8367
lhand -26.8449 16.0076
lfingers 7.12502
lthumb -0.270284 45.9872
rfemur -74.3078 -6.3159 23.4698
rtibia 67.9563
rfoot -26.709 -7.1697
rtoes -9.27767
lfemur -75.3669 0.632588 -18.1179
ltibia 67.5063
lfoot -28.8012 6.10343
ltoes -4.93422
267
root 0.959107 15.5237 -15.3252 39.8196 0.842566 -0.777605
lowerback 58.8448 -1.62659 4.55451
upperback 1.53908 1.47201 1.76241
thorax -20.3869 0.22108 -0.720585
lowerneck -24.1003 -3.60875 -8.6799
upperneck -21.994 -1.91478 9.13843
head -2.86606 -0.464243 4.31163
rclavicle 1.59028e-014 1.59028e-015
rhumerus -36.1697 -11.0343 -79.0489
rradius 72.7551
rwrist -18.3884
rhand -25.3728 27.8052
rfingers 7.12502
rthumb 1.1515 -2.17149
lclavicle 1.59028e-014 1.59028e-015
lhumerus -34.9932 7.91188 85.7038
lradius 60.2395
lwrist 21.0867
lhand -26.7399 16.6208
lfingers 7.12502
lthumb -0.168917 46.6005
rfemur -73.3402 -6.37356 23.5616
rtibia 68.5067
rfoot -27.1823 -7.52863
rtoes -11.0571
lfemur -74.4559 0.69743 -17.8644
ltibia 68.0839
lfoot -29.3999 6.07198
ltoes -5.40632
268
root 0.955562 15.4978 -15.189 39.3016 1.12542 -0.924234
lowerback 58.6777 -1.8017 4.90357
upperback 1.51518 1.48943 1.77938
thorax -20.3881 0.202103 -0.866569
lowerneck -23.6776 -3.49171 -8.52894
upperneck -22.038 -1.84322 8.93824
head -2.94344 -0.445178 4.22624
rclavicle 2.82274e-014 4.12478e-014
rhumerus -34.0023 -10.945 -79.4457
rradius 70.6756
rwrist -18.0773
rhand -25.6257 27.2225
rfingers 7.12502
rthumb 0.907258 -2.7553
lclavicle 2.82274e-014 4.12478e-014
lhumerus -33.0664 8.50495 85.9235
lradius 59.2396
lwrist 21.5234
lhand -26.1136 16.8882
lfingers 7.12502
lthumb 0.436049 46.8675
rfemur -72.4177 -6.39241 23.6307
rtibia 69.1142
rfoot -27.5655 -8.12033
rtoes -13.09
lfemur -73.5434 0.743878 -17.6003
ltibia 68.7506
lfoot -29.8584 6.4037
ltoes -8.0912
269
root 0.955668 15.4537 -15.0555 38.7975 1.13572 -0.90261
lowerback 58.3237 -1.87253 5.01366
upperback 1.45469 1.44299 1.71429
thorax -20.4335 0.175341 -0.974818
lowerneck -23.3829 -3.44618 -8.48719
upperneck -21.7821 -1.81759 8.99477
head -2.89697 -0.442153 4.23393
rclavicle -1.78906e-014 -1.13307e-014
rhumerus -31.7087 -10.7753 -79.7834
rradius 68.2522
rwrist -18.637
rhand -25.3229 28.0404
rfingers 7.12502
rthumb 1.19966 -1.93599
lclavicle -1.78906e-014 -1.13307e-014
lhumerus -31.321 8.87579 86.0756
lradius 58.4444
lwrist 22.1186
lhand -25.7033 16.5828
lfingers 7.12502
lthumb 0.832353 46.5609
rfemur -71.455 -6.30986 23.3416
rtibia 69.8467
rfoot -28.0438 -8.6414
rtoes -13.7831
lfemur -72.697 0.74798 -17.6126
ltibia 69.3924
lfoot -30.1279 7.10049
ltoes -11.3198
270
root 0.954556 15.3845 -14.9364 38.3197 0.992554 -0.753247
lowerback 57.8527 -1.83498 4.95003
upperback 1.44116 1.39376 1.61842
thorax -20.4153 0.162075 -1.044
lowerneck -23.4261 -3.49587 -8.46923
upperneck -21.2902 -1.89248 9.12901
head -2.72498 -0.481899 4.25997
rclavicle -2.14687e-014 -2.61402e-014
rhumerus -28.8361 -10.7469 -80.1507
rradius 65.6692
rwrist -19.6119
rhand -24.9552 28.4371
rfingers 7.12502
rthumb 1.55483 -1.53696
lclavicle -2.14687e-014 -2.61402e-014
lhumerus -29.5351 9.08063 86.3251
lradius 58.1757
lwrist 22.2875
lhand -25.8983 16.7673
lfingers 7.12502
lthumb 0.643972 46.7461
rfemur -70.3923 -6.205 22.9515
rtibia 70.7283
rfoot -28.2596 -10.3776
rtoes -18.293
lfemur -72.0995 0.710509 -17.722
ltibia 70.2142
lfoot -30.8572 6.83922
ltoes -10.5778
